<?xml version="1.0" encoding="UTF-8"?><svg id="Layer_1" xmlns="http://www.w3.org/2000/svg" viewBox="0 0 1309.56 1309.56"><defs><style>.cls-1{fill:#e9762a;}.cls-2{fill:#262261;}</style></defs><circle class="cls-1" cx="654.78" cy="654.78" r="654.78"/><path class="cls-2" d="M816.46,456.82h-23.93v181.4c-.32-.24-.64-.48-.96-.72-20.37-15.01-31.25-33.98-37.06-55.5-1.68-6.24-2.96-12.69-3.88-19.33-2.48-17.53-2.72-36.22-2.72-55.5v-50.34h-23.93l14.77-25.57,13.53-23.45,14.09-24.41,3.84-6.68,3.92,6.76,14.05,24.33,28.29,49.02Z"/><path class="cls-2" d="M816.46,712.91h-53.02c-13.33,0-25.81-6.52-33.42-17.49l-137.94-199.01-5.2-7.44v149.63c0,14.57-6.68,28.09-17.17,39.58-2.8,3.04-5.88,5.96-9.16,8.72-7.36,6.16-15.81,11.45-24.69,15.61-14.13,6.6-29.41,10.4-43.3,10.4v-356.28c23.29,0,65.83,5.68,85.88,16.17,20.05,10.52,37.58,25.77,50.82,44.86l5.16,8.16,10.16,16.05,12.25,19.29,20.21,31.85,57.59,90.84,11.16,17.61,34.58,54.54,10.28,16.21,25.81,40.7Z"/><path d="M292.5,793.64c0,7.1-.3,17.76-.89,31.98-.59,14.22-.89,24.92-.89,32.07v61.53c0,1.68-.9,2.52-2.71,2.52-1.49,0-3.75.06-6.77.19-3.02.12-5.28.19-6.77.19-1.62,0-4.05-.13-7.28-.37-3.24-.25-5.66-.37-7.28-.37-1.12,0-2.46-1.03-4.01-3.08-4.48-6.04-14.57-19.42-30.25-40.15-4.3-5.79-10.83-14.32-19.61-25.58-.25-.37-.72-.75-1.4-1.12-.5.44-.75,1.12-.75,2.05,0,7.22.2,18.05.61,32.49.4,14.44.61,25.27.61,32.49,0,2.18-.84,3.27-2.52,3.27h-32.31c-1.81,0-2.71-.96-2.71-2.89,0-6.72.33-16.87.98-30.44.65-13.57.98-23.75.98-30.53,0-7.16-.3-17.86-.89-32.12-.59-14.25-.89-24.93-.89-32.03,0-1.37,1.21-2.05,3.64-2.05,3.61,0,8.06-.25,13.35-.75,1.25-.12,3.7-.53,7.38-1.21,3.11-.56,5.57-.84,7.38-.84.75,0,1.9,1.06,3.45,3.18l34.83,47.71c3.11,4.3,7.81,10.58,14.1,18.86,1.56,1.93,2.89,2.89,4.02,2.89.81,0,1.21-2.43,1.21-7.28,0-6.54-.36-16.37-1.07-29.51-.72-13.13-1.07-23-1.07-29.6,0-2.3.65-3.45,1.96-3.45,3.73,0,9.37-.15,16.9-.47,7.53-.31,13.16-.47,16.9-.47,1.18,0,1.77.97,1.77,2.89Z"/><path d="M403.05,875.06c0,4.79.28,11.92.84,21.38.56,9.46.84,16.56.84,21.29,0,2.49-1.09,3.83-3.27,4.02-7.72.56-16.56.84-26.52.84-1.18,0-1.98-1.79-2.38-5.37-.41-3.58-.89-5.4-1.45-5.46-.5.25-1.15.78-1.96,1.59-6.97,7.04-14.44,10.55-22.41,10.55-12.14,0-22.19-4.79-30.16-14.38-7.53-8.96-11.3-19.67-11.3-32.12,0-14.38,3.89-25.96,11.67-34.73,8.09-9.09,19.17-13.63,33.24-13.63,9.77,0,17.49,3.42,23.16,10.27.25.31.47.47.65.47.56,0,1.2-1.51,1.91-4.53.71-3.02,1.57-4.53,2.57-4.53,2.3,0,6.69.65,13.16,1.96,6.16,1.25,10.58,2.3,13.26,3.17.93.37,1.4.87,1.4,1.49,0,.25-.09.9-.28,1.96-1.99,11.27-2.99,23.19-2.99,35.76ZM372.98,875.62c0-5.29-1.67-9.66-4.99-13.12-3.33-3.45-7.67-5.18-13.03-5.18s-9.68,1.71-12.98,5.14c-3.3,3.42-4.95,7.81-4.95,13.16,0,5.04,1.74,9.37,5.23,12.98,3.49,3.61,7.72,5.42,12.7,5.42,5.29,0,9.62-1.73,12.98-5.18,3.36-3.45,5.04-7.86,5.04-13.21Z"/><path d="M516.59,887.67v13.26c0,5.04.15,12.68.47,22.92.31,10.24.47,17.88.47,22.92,0,1.87-.97,2.89-2.89,3.08-2.68.25-7.13.37-13.35.37-1.68,0-4.2.12-7.56.37-3.36.25-5.88.37-7.56.37-1.25,0-1.87-.93-1.87-2.8,0-3.67.03-9.2.09-16.57.06-7.38.09-12.9.09-16.57,0-.87-.28-1.31-.84-1.31.99,0-1.53,1.7-7.56,5.09-6.04,3.39-11.86,5.09-17.46,5.09-12.32,0-22.41-4.82-30.25-14.47-7.35-9.03-11.02-19.83-11.02-32.4,0-13.51,3.55-24.77,10.64-33.8,7.66-9.71,18.05-14.57,31.19-14.57,10.02,0,17.62,2.86,22.78,8.59.37.5,1,1.06,1.87,1.68.56-.56.87-1.8.93-3.74v-4.01c.19-2.37,1.24-3.55,3.18-3.55,5.1,0,10.86.31,17.27.93,8.96.81,13.45,1.9,13.45,3.27l-.19,2.15c-1.25,16.68-1.87,34.58-1.87,53.69ZM483.91,875.43c0-5.42-1.4-9.83-4.2-13.26-2.99-3.73-7.16-5.6-12.51-5.6-4.98,0-8.96,1.9-11.95,5.7-2.74,3.55-4.11,7.88-4.11,12.98s1.52,9.59,4.57,13.07c3.24,3.67,7.41,5.51,12.51,5.51s9.06-1.8,11.86-5.42c2.55-3.3,3.83-7.62,3.83-12.98Z"/><path d="M568.79,865.54c0,16.99.06,30.04.19,39.12,0,1.43.09,3.89.28,7.38.19,3.18.28,5.63.28,7.38,0,1.31-.78,2.09-2.33,2.33-2.8.5-7.84.75-15.13.75s-12.23-.25-14.29-.75c-1.37-.31-2.15-1.15-2.33-2.52v-4.01c0-5.54.06-13.83.19-24.88.12-11.05.19-19.31.19-24.79,0-26.14.03-38.06.09-35.76-.19-13.76-.97-25.61-2.33-35.57-.13-.68-.19-1.21-.19-1.59,0-1.37.81-2.05,2.43-2.05h33.33c1.56,0,2.27.65,2.15,1.96l-.09,1.68c-1.62,26.89-2.43,50.67-2.43,71.34Z"/><path d="M677.56,855.17c0,12.08-.37,19.42-1.12,22.04-.93,3.11-7.75,14.38-20.45,33.8-1.99,3.05-7.13,10.12-15.41,21.2-9.15,12.2-14.35,18.64-15.59,19.33-1.49.93-11.05,1.4-28.66,1.4-2.68,0-4.48-.31-5.42-.93-.81-2.55-1.84-5.57-3.08-9.06-1-2.18-1.99-4.39-2.99-6.63-1.43-3.24-2.15-5.38-2.15-6.44,0-1.18.53-1.77,1.59-1.77,17.3,0,25.96-3.95,25.96-11.86,0-.68-4.23-6.88-12.7-18.58-8.78-12.01-13.6-19.61-14.47-22.78-.5-1.8-.75-8.25-.75-19.33,0-2.24.06-5.62.19-10.13.12-4.51.19-7.89.19-10.13,0-1.62,1.03-2.43,3.08-2.43,3.18,0,7.98.09,14.43.28,6.44.19,11.25.28,14.43.28,1.31,0,1.96.97,1.96,2.89,0,1.74-.09,4.37-.28,7.89-.19,3.52-.28,6.15-.28,7.89,0,7.84.12,13.17.37,15.97.19,2.18,2.05,6.23,5.6,12.14,3.73,6.16,6.44,9.24,8.12,9.24,1.43,0,3.86-3.05,7.28-9.15,3.17-5.79,4.89-9.68,5.14-11.67.62-5.48.93-11.42.93-17.83,0-1.68-.16-4.23-.47-7.66-.31-3.42-.47-6.01-.47-7.75,0-1.18.65-1.77,1.96-1.77,3.17,0,7.92-.12,14.24-.37,6.32-.25,11.06-.37,14.24-.37,1.62,0,2.71.81,3.27,2.43.87,2.86,1.31,9.49,1.31,19.89Z"/><path d="M782.61,875.06c0,4.79.28,11.92.84,21.38.56,9.46.84,16.56.84,21.29,0,2.49-1.09,3.83-3.27,4.02-7.72.56-16.56.84-26.52.84-1.18,0-1.98-1.79-2.38-5.37-.41-3.58-.89-5.4-1.45-5.46-.5.25-1.15.78-1.96,1.59-6.97,7.04-14.44,10.55-22.41,10.55-12.14,0-22.19-4.79-30.16-14.38-7.53-8.96-11.3-19.67-11.3-32.12,0-14.38,3.89-25.96,11.67-34.73,8.09-9.09,19.17-13.63,33.24-13.63,9.77,0,17.49,3.42,23.16,10.27.25.31.47.47.65.47.56,0,1.2-1.51,1.91-4.53.71-3.02,1.57-4.53,2.57-4.53,2.3,0,6.69.65,13.17,1.96,6.16,1.25,10.58,2.3,13.26,3.17.93.37,1.4.87,1.4,1.49,0,.25-.09.9-.28,1.96-1.99,11.27-2.99,23.19-2.99,35.76ZM752.54,875.62c0-5.29-1.67-9.66-5-13.12-3.33-3.45-7.67-5.18-13.03-5.18s-9.68,1.71-12.98,5.14c-3.3,3.42-4.95,7.81-4.95,13.16,0,5.04,1.74,9.37,5.23,12.98,3.49,3.61,7.72,5.42,12.7,5.42,5.29,0,9.62-1.73,12.98-5.18,3.36-3.45,5.04-7.86,5.04-13.21Z"/><path d="M863.65,894.39c0,1.87-.23,4.7-.7,8.5-.47,3.8-.7,6.58-.7,8.36s-.19,2.91-.56,3.41c-.37.5-1.4,1.21-3.08,2.15-8.03,4.42-16.93,6.63-26.7,6.63-17.99,0-26.98-6.88-26.98-20.64,0-4.11.15-10.29.47-18.53.31-8.25.47-14.43.47-18.53,0-2.74-1.59-4.11-4.76-4.11h-1.21c-.56.06-.97.09-1.21.09-2.37,0-3.55-.84-3.55-2.52,0-.99.08-2.52.23-4.57.15-2.05.23-3.58.23-4.58,0-1.31-.08-3.3-.23-5.98-.16-2.68-.23-4.67-.23-5.98s1.99-1.93,5.98-2.05c2.24-.06,3.45-.68,3.64-1.87.37-2.37.5-6.1.37-11.2-.25-8.03-.37-11.86-.37-11.48,0-7.22.68-10.83,2.05-10.83,1.68,0,4.08.37,7.19,1.12,3.55.81,6.01,1.28,7.38,1.4,3.17.44,7.97,1.03,14.38,1.77,1.56.13,2.33.65,2.33,1.59,0,2.49-.2,6.26-.61,11.3-.41,5.04-.61,8.84-.61,11.39,0,3.05.9,4.57,2.71,4.57,2.18,0,5.48-.09,9.9-.28,4.42-.19,7.75-.28,9.99-.28,1.37,0,2.05.47,2.05,1.4,0,1.43-.16,3.58-.47,6.44-.31,2.86-.47,5.01-.47,6.44s.03,3.67.09,6.54c.06,2.86.09,5.04.09,6.54,0,1.31-.9,1.96-2.71,1.96-1.25,0-3.33-.05-6.26-.14-2.93-.09-5.01-.14-6.26-.14h-7c-.93,0-1.4,1.37-1.4,4.11v6.63c.06,2.99.09,5.2.09,6.63,0,5.23.59,8.84,1.77,10.83,1.68,2.68,4.98,4.02,9.9,4.02,1.56,0,3.78-.36,6.68-1.07,2.89-.71,4.93-1.07,6.12-1.07,1.31,0,1.96.69,1.96,2.05Z"/><path d="M958.99,871.05c0,6.29-2.02,9.87-6.07,10.74-.69.13-7.13.81-19.33,2.05-7.34.81-18.3,1.77-32.87,2.89.87,4.05,3.52,7.13,7.94,9.24,3.61,1.74,7.72,2.61,12.33,2.61,5.54,0,11.11-1.49,16.71-4.48,2.37-1.49,4.73-2.99,7.1-4.48,1.31.62,3.5,3.8,6.58,9.52,3.08,5.73,4.62,9.37,4.62,10.93,0,.44-.47,1.15-1.4,2.15-7.6,8.15-19.39,12.23-35.39,12.23-14.82,0-26.77-4.33-35.85-12.98-9.34-8.78-14.01-20.51-14.01-35.2s4.17-26.05,12.51-35.2c8.59-9.46,19.98-14.19,34.17-14.19,11.95,0,22.1,4.36,30.44,13.07,8.34,8.72,12.51,19.08,12.51,31.09ZM926.31,865.35c0-3.86-1.37-7.25-4.11-10.18-2.74-2.92-6.01-4.39-9.8-4.39s-7.16,1.65-9.71,4.95c-2.37,3.05-3.55,6.63-3.55,10.74,0,1.68.87,2.52,2.61,2.52,4.61,0,11.76-.71,21.48-2.15,2.05-.31,3.08-.81,3.08-1.49Z"/><path d="M1031.07,860.31c-.06,0-1.95-.5-5.65-1.49-3.7-1-6.71-1.49-9.01-1.49-5.54,0-9.96,1.67-13.26,5-3.3,3.33-4.95,7.77-4.95,13.31s1.8,10.22,5.42,13.49c3.61,3.27,8.31,4.9,14.1,4.9,2.74,0,5.82-.7,9.24-2.1,3.42-1.4,5.04-2.1,4.85-2.1,1.06,0,2.43,3.95,4.11,11.86,1.43,7.22,2.15,12.01,2.15,14.38s-3.86,4.39-11.58,6.07c-5.98,1.31-10.8,1.96-14.47,1.96-13.7,0-24.99-4.61-33.89-13.82-8.9-9.21-13.35-20.7-13.35-34.45s4.47-25.1,13.4-34.41c8.93-9.31,20.22-13.96,33.85-13.96,9.27,0,17.43,1.99,24.46,5.98,1.62.87,2.43,1.71,2.43,2.52s-.93,4.48-2.8,11.02c-1.74,6.29-2.88,10.08-3.41,11.39-.53,1.31-1.07,1.96-1.63,1.96Z"/><path d="M1141.99,854.05l-.19,64.43c0,2.18-.87,3.39-2.61,3.64-1.99.25-6.54.37-13.63.37s-11.61-.25-14.29-.75c-2.05-.37-3.08-1.71-3.08-4.02,0-5.35.09-13.41.28-24.18.19-10.77.28-18.83.28-24.18,0-7.28-3.7-10.92-11.11-10.92-2.49,0-5.42,1-8.78,2.99-3.67,2.18-5.51,4.45-5.51,6.82v23.06c0,2.99.06,7.49.19,13.49.12,6.01.19,10.5.19,13.49,0,2.3-.97,3.58-2.9,3.83-1.93.25-7.34.37-16.25.37-5.11,0-8.78-.25-11.02-.75-2.24-.5-3.36-1.59-3.36-3.27,0-4.92.03-12.31.09-22.18.06-9.87.09-17.26.09-22.18,0-20.36-.22-37.19-.65-50.51-.19-4.67-.34-9.34-.47-14.01-.31-5.41-.87-10.05-1.68-13.91-.19-.81-.28-1.4-.28-1.77,0-.93.47-1.56,1.4-1.87,1.93-.56,4.76-.9,8.5-1.03,4.98-.19,7.87-.34,8.68-.47l16.9-1.96c1,0,1.49.65,1.49,1.96,0,1.99-.13,4.7-.37,8.12-.25,3.98-.37,6.69-.37,8.12-.37,14.07-.56,25.18-.56,33.33,0,1.25.31,1.87.93,1.87.12,0,1.71-1.09,4.76-3.27,3.61-2.55,7.06-4.57,10.36-6.07,4.92-2.18,9.68-3.27,14.29-3.27,7.97,0,14.63,2.09,19.98,6.26,5.79,4.48,8.68,10.61,8.68,18.39Z"/></svg>